<?xml version="1.0" encoding="UTF-8"?>
<!DOCTYPE svg PUBLIC "-//W3C//DTD SVG 1.1//EN" "http://www.w3.org/Graphics/SVG/1.1/DTD/svg11.dtd">
<svg xmlns="http://www.w3.org/2000/svg" version="1.1" width="500px" height="500px" style="shape-rendering:geometricPrecision; text-rendering:geometricPrecision; image-rendering:optimizeQuality; fill-rule:evenodd; clip-rule:evenodd" xmlns:xlink="http://www.w3.org/1999/xlink">
<g><path style="opacity:0.95" fill="#fefffe" d="M 338.5,38.5 C 363.148,37.6636 379.981,48.6636 389,71.5C 393.353,84.3046 395.186,97.4713 394.5,111C 394.645,129.483 392.312,147.649 387.5,165.5C 387.833,166.167 388.167,166.833 388.5,167.5C 411.566,174.201 432.899,184.368 452.5,198C 486.988,226.021 488.988,256.021 458.5,288C 436.852,305.156 412.518,316.99 385.5,323.5C 389.425,339.292 392.258,355.292 394,371.5C 395.339,388 394.339,404.334 391,420.5C 382.526,449.992 363.026,462.825 332.5,459C 314.54,455.185 298.207,447.851 283.5,437C 271.435,428.441 260.102,418.941 249.5,408.5C 238.869,418.143 227.869,427.31 216.5,436C 201.119,447.189 184.119,454.856 165.5,459C 132.794,462.313 112.961,447.813 106,415.5C 101.524,384.424 104.024,353.924 113.5,324C 86.5567,317.028 62.2234,305.028 40.5,288C 10.9887,259.037 11.322,230.37 41.5,202C 53.1689,192.826 65.8356,185.159 79.5,179C 90.1609,174.726 100.828,170.559 111.5,166.5C 104.732,141.889 102.566,116.889 105,91.5C 113.232,45.9602 139.399,30.4602 183.5,45C 208.049,56.0493 229.716,71.216 248.5,90.5C 263.166,76.9956 278.832,64.829 295.5,54C 308.935,45.914 323.269,40.7473 338.5,38.5 Z M 148.5,60.5 C 164.427,60.0848 179.093,64.2515 192.5,73C 207.498,82.4943 221.165,93.661 233.5,106.5C 220.931,120.899 208.931,135.732 197.5,151C 175.334,153.528 153.334,157.028 131.5,161.5C 128.252,147.342 126.085,133.009 125,118.5C 123.094,101.028 126.427,84.6948 135,69.5C 138.882,65.4293 143.382,62.4293 148.5,60.5 Z M 335.5,60.5 C 355.026,58.5121 366.859,67.1788 371,86.5C 374.838,111.794 373.338,136.794 366.5,161.5C 344.703,156.812 322.703,153.312 300.5,151C 289.069,135.732 277.069,120.899 264.5,106.5C 280.661,90.0825 298.994,76.5825 319.5,66C 324.844,63.8409 330.177,62.0076 335.5,60.5 Z M 248.5,122.5 C 250.017,122.511 251.184,123.177 252,124.5C 258.833,132.667 265.667,140.833 272.5,149C 257.167,148.333 241.833,148.333 226.5,149C 233.291,139.71 240.624,130.876 248.5,122.5 Z M 218.5,170.5 C 239.169,170.333 259.836,170.5 280.5,171C 283.553,171.179 286.553,171.679 289.5,172.5C 306.139,196.93 321.139,222.43 334.5,249C 322.682,272.982 309.348,295.982 294.5,318C 288.944,319.239 283.278,319.906 277.5,320C 258.833,320.667 240.167,320.667 221.5,320C 215.419,319.862 209.419,319.196 203.5,318C 188.723,296.459 175.723,273.792 164.5,250C 177.164,222.828 191.997,196.995 209,172.5C 212.27,171.868 215.437,171.201 218.5,170.5 Z M 177.5,174.5 C 178.873,174.343 180.207,174.51 181.5,175C 171.203,190.646 161.703,206.813 153,223.5C 147.05,210.318 141.883,196.818 137.5,183C 150.849,179.698 164.182,176.865 177.5,174.5 Z M 316.5,175.5 C 331.068,176.173 345.568,178.506 360,182.5C 356.443,196.629 351.443,210.296 345,223.5C 336.433,206.808 326.933,190.808 316.5,175.5 Z M 114.5,188.5 C 116.124,188.36 117.29,189.027 118,190.5C 124.245,210.489 131.745,229.989 140.5,249C 132.675,266.976 125.342,285.143 118.5,303.5C 98.5927,297.592 79.9261,289.092 62.5,278C 53.86,271.697 47.0267,263.863 42,254.5C 39.3712,246.045 40.3712,238.045 45,230.5C 52.6308,220.206 62.1308,212.039 73.5,206C 86.8029,199.007 100.47,193.174 114.5,188.5 Z M 381.5,188.5 C 405.131,194.482 426.464,204.982 445.5,220C 453.159,226.818 457.492,235.318 458.5,245.5C 458.314,252.207 456.147,258.207 452,263.5C 440.69,276.075 427.19,285.575 411.5,292C 400.803,296.732 389.803,300.566 378.5,303.5C 373.171,285.014 366.171,267.18 357.5,250C 366.977,230.068 374.977,209.568 381.5,188.5 Z M 152.5,274.5 C 160.103,287.794 167.77,301.127 175.5,314.5C 175,314.833 174.5,315.167 174,315.5C 162.832,313.444 151.666,311.444 140.5,309.5C 144.101,297.696 148.101,286.029 152.5,274.5 Z M 344.5,275.5 C 345.75,275.577 346.583,276.244 347,277.5C 350.932,287.795 354.765,298.128 358.5,308.5C 346.683,311.858 334.683,314.025 322.5,315C 330.491,302.182 337.825,289.015 344.5,275.5 Z M 133.5,329.5 C 152.658,333.637 171.992,336.804 191.5,339C 203.585,356.321 216.751,372.821 231,388.5C 232.289,390.055 232.956,391.721 233,393.5C 214.203,413.149 192.037,427.649 166.5,437C 144.44,441.547 131.273,432.713 127,410.5C 124.033,394.52 124.033,378.52 127,362.5C 128.721,351.395 130.888,340.395 133.5,329.5 Z M 362.5,329.5 C 363.496,329.414 364.329,329.748 365,330.5C 371.912,354.037 374.578,378.037 373,402.5C 369.41,435.374 352.244,445.874 321.5,434C 300.437,423.602 281.603,410.102 265,393.5C 264.333,392.833 264.333,392.167 265,391.5C 280.035,375.079 293.869,357.745 306.5,339.5C 325.49,337.225 344.156,333.892 362.5,329.5 Z M 220.5,341.5 C 239.512,341.167 258.512,341.5 277.5,342.5C 268.564,354.272 259.064,365.606 249,376.5C 238.507,365.52 229.007,353.854 220.5,341.5 Z"/></g>
<g><path style="opacity:0.978" fill="#fefffe" d="M 239.5,199.5 C 262.416,196.547 280.25,204.547 293,223.5C 304.916,248.188 301.083,270.021 281.5,289C 262.983,301.427 243.65,302.76 223.5,293C 204.387,280.262 196.554,262.429 200,239.5C 205.348,218.319 218.515,204.986 239.5,199.5 Z"/></g>
</svg>
